<?xml version="1.0" encoding="UTF-8"?>
<svg xmlns="http://www.w3.org/2000/svg" xmlns:xlink="http://www.w3.org/1999/xlink" width="210px" height="79px" viewBox="0 0 210 79" version="1.1">
<g id="surface1">
<path style=" stroke:none;fill-rule:nonzero;fill:rgb(98.823529%,98.823529%,99.215686%);fill-opacity:1;" d="M 0 0.0429688 L 210 0.0429688 L 210 78.957031 L 0 78.957031 Z M 0 0.0429688 "/>
<path style=" stroke:none;fill-rule:nonzero;fill:rgb(0.392157%,0%,0.392157%);fill-opacity:1;" d="M 164.164062 12.664062 L 164.574219 12.765625 L 164.574219 24.980469 L 164.472656 26.929688 L 170.523438 26.929688 L 170.933594 27.441406 L 172.574219 30.417969 L 173.804688 32.675781 L 175.136719 35.136719 L 176.164062 36.984375 L 176.46875 37.601562 L 176.570312 37.703125 L 176.878906 36.882812 L 177.804688 34.832031 L 179.445312 31.339844 L 181.085938 27.953125 L 181.597656 27.132812 L 182.109375 26.828125 L 190.003906 27.03125 L 190.109375 27.238281 L 188.671875 29.800781 L 187.132812 32.675781 L 185.082031 36.679688 L 183.441406 39.859375 L 182.417969 41.808594 L 181.492188 43.554688 L 180.367188 45.503906 L 178.210938 49.8125 L 177.289062 51.457031 L 176.164062 53.816406 L 174.929688 56.277344 L 174.007812 57.921875 L 173.289062 58.945312 L 164.882812 58.945312 L 165.703125 57.203125 L 166.933594 54.945312 L 168.78125 51.351562 L 169.804688 49.402344 L 171.546875 46.015625 L 171.855469 45.402344 L 172.0625 45.195312 L 172.0625 44.578125 L 170.828125 42.425781 L 169.292969 39.652344 L 168.367188 38.011719 L 167.34375 36.164062 L 165.90625 33.597656 L 164.574219 31.339844 L 164.679688 33.1875 L 164.882812 34.316406 L 164.984375 34.832031 L 164.574219 34.625 L 164.679688 41.707031 L 164.679688 47.144531 L 164.574219 47.554688 L 164.574219 48.070312 L 164.371094 48.171875 L 157.398438 48.171875 L 157.296875 47.761719 L 157.191406 31.238281 L 155.960938 33.703125 L 155.347656 33.597656 L 154.21875 33.085938 L 153.296875 32.882812 L 151.039062 32.882812 L 149.808594 33.394531 L 148.886719 34.214844 L 148.066406 35.855469 L 147.964844 36.265625 L 147.859375 37.808594 L 147.859375 47.144531 L 147.757812 48.070312 L 147.554688 48.171875 L 140.476562 48.171875 L 140.375 47.246094 L 140.375 43.757812 L 140.070312 44.066406 L 139.65625 44.683594 L 138.734375 45.707031 L 137.710938 46.632812 L 136.070312 47.554688 L 134.429688 48.171875 L 132.6875 48.582031 L 131.867188 48.683594 L 127.660156 48.683594 L 125.917969 48.273438 L 124.175781 47.554688 L 123.148438 46.941406 L 122.125 46.117188 L 120.894531 44.992188 L 120.074219 44.066406 L 118.945312 42.21875 L 118.742188 41.910156 L 118.636719 42.117188 L 118.636719 44.167969 L 118.433594 45.605469 L 118.433594 46.941406 L 118.535156 47.964844 L 118.226562 48.171875 L 111.253906 48.171875 L 111.152344 48.070312 L 111.152344 45.914062 L 110.640625 46.425781 L 109.613281 47.246094 L 108.484375 47.964844 L 106.640625 48.582031 L 106.023438 48.683594 L 102.335938 48.683594 L 101.101562 48.375 L 99.769531 47.863281 L 98.234375 46.941406 L 96.898438 45.707031 L 95.875 44.578125 L 94.953125 43.144531 L 94.746094 42.734375 L 94.644531 43.964844 L 94.539062 46.222656 L 94.539062 48.070312 L 94.335938 48.171875 L 87.363281 48.171875 L 87.261719 48.070312 L 87.15625 35.445312 L 86.75 34.113281 L 86.03125 33.085938 L 85.109375 32.46875 L 84.492188 32.265625 L 83.160156 32.164062 L 81.929688 32.46875 L 80.800781 33.1875 L 79.980469 34.007812 L 79.773438 34.625 L 79.46875 34.933594 L 79.367188 35.136719 L 79.261719 38.011719 L 79.261719 47.144531 L 79.160156 47.964844 L 78.953125 48.171875 L 71.878906 48.171875 L 71.777344 42.425781 L 71.777344 28.367188 L 71.878906 27.132812 L 71.984375 27.03125 L 79.160156 27.03125 L 79.261719 27.339844 L 79.261719 28.980469 L 79.160156 29.1875 L 79.773438 28.777344 L 80.390625 28.058594 L 81.828125 27.132812 L 83.160156 26.722656 L 84.59375 26.414062 L 86.644531 26.414062 L 88.492188 26.722656 L 90.132812 27.339844 L 91.464844 28.058594 L 92.492188 28.980469 L 93.414062 30.007812 L 94.335938 31.648438 L 94.644531 32.984375 L 95.257812 31.648438 L 95.976562 30.417969 L 96.898438 29.390625 L 97.617188 28.570312 L 98.128906 28.160156 L 99.15625 27.542969 L 101 26.828125 L 102.847656 26.414062 L 103.769531 26.3125 L 105.101562 26.3125 L 107.050781 26.621094 L 108.382812 27.132812 L 109.921875 27.953125 L 110.433594 28.261719 L 110.945312 28.671875 L 111.152344 28.777344 L 111.152344 13.175781 L 111.253906 12.871094 L 111.460938 12.765625 L 118.328125 12.765625 L 118.433594 13.589844 L 118.535156 32.777344 L 118.742188 32.984375 L 118.636719 33.703125 L 119.765625 31.546875 L 120.585938 30.519531 L 122.023438 28.980469 L 123.046875 28.160156 L 124.484375 27.441406 L 126.636719 26.722656 L 129.097656 26.3125 L 130.632812 26.3125 L 132.6875 26.621094 L 134.429688 27.132812 L 136.171875 27.953125 L 137.300781 28.777344 L 138.835938 30.316406 L 139.761719 31.648438 L 140.070312 32.574219 L 140.375 32.574219 L 140.375 27.851562 L 140.476562 27.132812 L 140.582031 27.03125 L 147.757812 27.03125 L 147.859375 29.289062 L 147.964844 29.597656 L 147.964844 29.800781 L 149.09375 28.46875 L 149.914062 27.75 L 150.734375 27.132812 L 151.554688 26.828125 L 154.21875 26.3125 L 155.859375 26.414062 L 156.167969 26.519531 L 156.269531 26.210938 L 156.371094 26.621094 L 157.296875 26.828125 L 157.296875 12.972656 L 157.601562 12.765625 Z M 164.164062 12.664062 "/>
<path style=" stroke:none;fill-rule:nonzero;fill:rgb(0.784314%,0%,0.392157%);fill-opacity:1;" d="M 26.453125 26.828125 L 30.863281 26.929688 L 31.375 27.441406 L 32.8125 30.519531 L 34.144531 33.597656 L 35.890625 37.292969 L 36.195312 38.113281 L 36.402344 38.21875 L 36.710938 37.191406 L 38.042969 34.113281 L 39.578125 30.828125 L 40.8125 28.058594 L 41.425781 27.132812 L 41.734375 26.828125 L 48.5 26.929688 L 49.9375 27.03125 L 49.730469 27.542969 L 48.808594 29.1875 L 47.78125 30.929688 L 46.140625 33.90625 L 44.5 37.191406 L 43.273438 39.449219 L 41.734375 42.320312 L 40.398438 44.886719 L 39.476562 46.632812 L 38.757812 47.660156 L 38.554688 48.070312 L 38.351562 48.171875 L 34.25 48.171875 L 33.53125 48.070312 L 33.121094 47.351562 L 31.480469 43.757812 L 29.839844 40.0625 L 28.609375 37.5 L 28.402344 37.910156 L 27.890625 39.449219 L 27.070312 41.089844 L 25.226562 45.195312 L 24.40625 47.144531 L 23.789062 48.070312 L 23.585938 48.171875 L 18.96875 48.171875 L 18.558594 47.660156 L 17.226562 45.195312 L 15.585938 42.117188 L 14.355469 39.859375 L 12.816406 36.984375 L 11.585938 34.726562 L 8.511719 28.980469 L 7.792969 27.75 L 7.585938 27.03125 L 11.175781 26.929688 L 15.789062 26.929688 L 16.714844 28.671875 L 17.945312 31.339844 L 19.585938 34.933594 L 21.019531 38.113281 L 21.226562 38.21875 L 21.53125 37.191406 L 22.867188 34.113281 L 24.507812 30.519531 L 25.941406 27.339844 Z M 26.453125 26.828125 "/>
<path style=" stroke:none;fill-rule:nonzero;fill:rgb(0.392157%,0%,0.392157%);fill-opacity:1;" d="M 55.984375 26.3125 L 57.421875 26.3125 L 59.371094 26.621094 L 60.804688 27.132812 L 62.546875 28.058594 L 62.855469 28.261719 L 63.472656 28.058594 L 63.472656 27.441406 L 63.78125 27.03125 L 70.546875 27.03125 L 70.957031 27.339844 L 70.957031 27.75 L 71.164062 27.75 L 71.058594 29.597656 L 70.957031 47.042969 L 70.855469 47.144531 L 70.75 48.070312 L 70.546875 48.171875 L 63.574219 48.171875 L 63.472656 47.660156 L 63.574219 45.8125 L 63.367188 45.8125 L 63.164062 46.222656 L 62.242188 47.042969 L 61.214844 47.761719 L 59.984375 48.273438 L 58.34375 48.683594 L 54.652344 48.683594 L 53.117188 48.273438 L 51.679688 47.660156 L 50.449219 46.835938 L 49.21875 45.707031 L 48.296875 44.683594 L 47.375 43.246094 L 46.757812 41.910156 L 46.347656 40.476562 L 46.039062 38.832031 L 46.039062 36.265625 L 46.246094 34.832031 L 46.757812 33.292969 L 47.988281 30.929688 L 48.707031 29.90625 L 50.449219 28.160156 L 51.882812 27.339844 L 53.730469 26.722656 Z M 55.984375 26.3125 "/>
<path style=" stroke:none;fill-rule:nonzero;fill:rgb(98.823529%,98.823529%,99.215686%);fill-opacity:1;" d="M 57.933594 32.675781 L 59.371094 32.675781 L 60.601562 32.882812 L 61.726562 33.496094 L 62.753906 34.421875 L 63.265625 35.242188 L 63.574219 36.265625 L 63.675781 36.984375 L 63.675781 38.21875 L 63.367188 39.550781 L 62.753906 40.679688 L 62.035156 41.296875 L 61.214844 42.117188 L 59.882812 42.628906 L 59.371094 42.734375 L 58.445312 42.734375 L 57.21875 42.425781 L 55.78125 41.707031 L 55.0625 41.089844 L 54.34375 40.0625 L 53.832031 38.832031 L 53.628906 37.808594 L 53.628906 36.984375 L 54.140625 35.753906 L 54.960938 34.316406 L 55.679688 33.597656 L 56.804688 32.984375 L 57.320312 32.777344 Z M 57.933594 32.675781 "/>
<path style=" stroke:none;fill-rule:nonzero;fill:rgb(98.823529%,98.823529%,99.215686%);fill-opacity:1;" d="M 105.617188 32.675781 L 106.949219 32.675781 L 108.179688 32.882812 L 109.410156 33.496094 L 110.332031 34.316406 L 110.945312 35.34375 L 111.253906 36.371094 L 111.253906 38.730469 L 110.84375 39.960938 L 110.230469 40.886719 L 109.71875 41.296875 L 108.898438 42.117188 L 107.5625 42.628906 L 107.050781 42.734375 L 106.230469 42.734375 L 105.203125 42.527344 L 103.976562 42.015625 L 102.847656 41.191406 L 102.027344 40.0625 L 101.515625 38.832031 L 101.308594 37.910156 L 101.308594 36.984375 L 101.820312 35.652344 L 102.335938 34.832031 L 102.949219 34.007812 L 103.667969 33.394531 L 104.691406 32.882812 Z M 105.617188 32.675781 "/>
<path style=" stroke:none;fill-rule:nonzero;fill:rgb(98.823529%,98.431373%,99.215686%);fill-opacity:1;" d="M 128.378906 38.628906 L 136.480469 38.628906 L 140.375 38.730469 L 140.375 43.144531 L 138.324219 42.21875 L 135.96875 40.988281 L 135.660156 40.78125 L 135.148438 40.78125 L 133.8125 42.015625 L 132.992188 42.527344 L 130.839844 43.039062 L 129.507812 43.039062 L 128.171875 42.628906 L 127.046875 41.910156 L 126.226562 41.089844 L 125.710938 40.167969 L 125.507812 39.242188 L 125.507812 38.832031 L 125.710938 38.730469 Z M 128.378906 38.628906 "/>
<path style=" stroke:none;fill-rule:nonzero;fill:rgb(0.392157%,92.156863%,98.431373%);fill-opacity:1;" d="M 48.089844 30.625 L 48.089844 30.929688 L 46.757812 33.496094 L 46.246094 35.242188 L 46.140625 36.265625 L 46.140625 38.832031 L 46.554688 40.988281 L 47.167969 42.628906 L 47.886719 43.964844 L 49.015625 45.402344 L 50.039062 46.425781 L 51.371094 47.351562 L 52.808594 48.070312 L 54.140625 48.480469 L 54.652344 48.582031 L 58.34375 48.582031 L 59.984375 48.171875 L 61.214844 47.660156 L 62.855469 46.425781 L 63.367188 45.8125 L 63.574219 45.8125 L 63.574219 48.070312 L 70.238281 48.171875 L 70.035156 49.199219 L 63.164062 49.199219 L 62.546875 49.09375 L 62.445312 47.660156 L 61.421875 48.070312 L 60.703125 48.683594 L 59.164062 49.402344 L 58.039062 49.710938 L 57.320312 49.8125 L 54.34375 49.8125 L 52.703125 49.503906 L 51.0625 48.789062 L 49.9375 48.171875 L 48.910156 47.351562 L 47.988281 46.425781 L 46.960938 44.992188 L 46.140625 43.554688 L 45.425781 41.398438 L 45.117188 39.550781 L 45.117188 37.292969 L 45.320312 36.164062 L 45.320312 35.445312 L 46.347656 33.292969 L 47.679688 30.929688 Z M 48.089844 30.625 "/>
<path style=" stroke:none;fill-rule:nonzero;fill:rgb(89.411765%,1.176471%,91.37255%);fill-opacity:1;" d="M 158.421875 11.742188 L 165.292969 11.742188 L 165.394531 13.382812 L 165.394531 26.003906 L 165.90625 25.902344 L 171.242188 25.902344 L 171.648438 26.109375 L 172.882812 28.46875 L 174.316406 31.136719 L 175.546875 33.394531 L 176.46875 35.035156 L 176.878906 36.0625 L 176.777344 37.394531 L 176.570312 37.808594 L 176.164062 37.292969 L 175.34375 35.652344 L 174.007812 33.1875 L 172.777344 30.929688 L 171.242188 28.160156 L 170.625 27.132812 L 170.523438 27.03125 L 164.78125 27.03125 L 164.472656 26.929688 L 164.472656 12.765625 L 157.703125 12.765625 L 157.910156 12.664062 L 158.011719 12.046875 Z M 158.421875 11.742188 "/>
<path style=" stroke:none;fill-rule:nonzero;fill:rgb(0.392157%,92.156863%,98.431373%);fill-opacity:1;" d="M 118.742188 41.808594 L 118.945312 41.910156 L 119.5625 43.144531 L 120.382812 44.273438 L 121.304688 45.296875 L 122.429688 46.324219 L 123.457031 47.042969 L 125.097656 47.863281 L 126.636719 48.375 L 127.660156 48.582031 L 131.867188 48.582031 L 133.609375 48.273438 L 135.660156 47.660156 L 137.402344 46.734375 L 138.429688 45.914062 L 139.351562 44.992188 L 140.171875 43.757812 L 140.375 43.757812 L 140.476562 48.171875 L 147.246094 48.171875 L 147.347656 48.582031 L 147.144531 49.199219 L 140.171875 49.199219 L 139.554688 49.09375 L 139.453125 45.707031 L 139.25 45.503906 L 138.324219 46.425781 L 137.8125 46.835938 L 137.300781 47.453125 L 135.761719 48.375 L 134.328125 48.992188 L 132.480469 49.609375 L 131.046875 49.8125 L 127.558594 49.8125 L 125.609375 49.503906 L 123.96875 48.890625 L 122.429688 48.070312 L 121.203125 47.144531 L 120.382812 46.425781 L 119.664062 45.605469 L 119.046875 44.683594 L 118.742188 44.375 L 118.535156 43.964844 L 118.535156 42.117188 Z M 118.742188 41.808594 "/>
<path style=" stroke:none;fill-rule:nonzero;fill:rgb(0.392157%,92.156863%,98.431373%);fill-opacity:1;" d="M 7.691406 27.441406 L 8 27.851562 L 9.023438 29.800781 L 10.253906 32.058594 L 11.996094 35.34375 L 13.226562 37.601562 L 14.5625 40.0625 L 16.203125 43.144531 L 17.429688 45.402344 L 18.765625 47.863281 L 18.96875 48.070312 L 21.019531 48.070312 L 23.585938 48.171875 L 23.277344 49.09375 L 23.070312 49.300781 L 19.789062 49.300781 L 18.25 49.199219 L 17.738281 48.683594 L 16.097656 45.503906 L 14.867188 43.246094 L 13.636719 40.886719 L 12.613281 39.039062 L 10.972656 35.960938 L 9.742188 33.703125 L 8.101562 30.625 L 7.074219 28.878906 L 6.765625 28.261719 L 6.871094 27.851562 Z M 7.691406 27.441406 "/>
<path style=" stroke:none;fill-rule:nonzero;fill:rgb(0.392157%,92.156863%,98.431373%);fill-opacity:1;" d="M 164.472656 31.136719 L 164.78125 31.546875 L 166.214844 34.007812 L 167.652344 36.574219 L 169.292969 39.550781 L 170.523438 41.707031 L 171.855469 44.066406 L 172.164062 44.578125 L 172.164062 45.195312 L 171.753906 45.707031 L 170.625 48.070312 L 169.1875 50.839844 L 167.960938 53.199219 L 166.726562 55.457031 L 164.984375 58.84375 L 173.1875 58.945312 L 172.984375 59.5625 L 172.574219 60.074219 L 167.652344 60.074219 L 164.265625 59.972656 L 164.164062 59.460938 L 164.679688 58.640625 L 165.5 56.996094 L 166.726562 54.738281 L 167.546875 53.097656 L 168.78125 50.738281 L 170.523438 47.453125 L 171.136719 46.324219 L 171.136719 45.402344 L 169.703125 42.734375 L 168.164062 39.960938 L 166.726562 37.394531 L 166.011719 36.0625 L 165.394531 35.136719 L 165.085938 34.832031 L 164.78125 34.316406 L 164.574219 33.1875 Z M 164.472656 31.136719 "/>
<path style=" stroke:none;fill-rule:nonzero;fill:rgb(0.392157%,92.156863%,98.431373%);fill-opacity:1;" d="M 94.644531 42.628906 L 94.953125 42.9375 L 95.773438 44.273438 L 96.695312 45.402344 L 97.71875 46.425781 L 99.054688 47.351562 L 100.488281 48.070312 L 101.71875 48.480469 L 102.335938 48.582031 L 106.023438 48.582031 L 107.664062 48.171875 L 108.898438 47.660156 L 110.539062 46.425781 L 111.050781 45.8125 L 111.253906 45.914062 L 111.253906 48.070312 L 116.996094 48.171875 L 117.921875 48.375 L 117.714844 49.09375 L 117.507812 49.199219 L 111.050781 49.199219 L 110.230469 49.09375 L 110.125 48.890625 L 110.230469 48.070312 L 110.023438 47.761719 L 109.410156 47.863281 L 108.484375 48.582031 L 106.742188 49.402344 L 105.71875 49.710938 L 104.898438 49.8125 L 102.027344 49.8125 L 100.386719 49.503906 L 98.847656 48.890625 L 97.414062 48.070312 L 96.078125 46.941406 L 95.464844 46.222656 L 95.15625 45.707031 L 95.15625 45.503906 L 94.953125 45.503906 L 94.644531 44.886719 L 94.539062 43.449219 Z M 94.644531 42.628906 "/>
<path style=" stroke:none;fill-rule:nonzero;fill:rgb(0.392157%,92.156863%,98.431373%);fill-opacity:1;" d="M 83.160156 32.058594 L 84.492188 32.164062 L 85.515625 32.574219 L 86.132812 33.085938 L 86.851562 34.113281 L 87.261719 35.445312 L 87.363281 48.070312 L 93.925781 48.171875 L 93.925781 48.992188 L 93.824219 49.199219 L 86.441406 49.199219 L 86.335938 39.449219 L 86.234375 36.0625 L 85.929688 35.035156 L 85.003906 34.007812 L 83.773438 33.394531 L 82.03125 33.394531 L 80.699219 33.804688 L 79.773438 34.421875 L 79.980469 33.90625 L 80.902344 32.984375 L 81.929688 32.367188 Z M 83.160156 32.058594 "/>
<path style=" stroke:none;fill-rule:nonzero;fill:rgb(0.392157%,92.156863%,98.431373%);fill-opacity:1;" d="M 71.265625 27.542969 L 71.878906 27.542969 L 71.878906 48.171875 L 77.007812 48.171875 L 78.648438 48.273438 L 78.75 48.480469 L 78.546875 49.199219 L 78.238281 49.300781 L 75.878906 49.300781 L 70.957031 49.199219 L 70.75 47.964844 L 70.75 47.144531 L 70.855469 47.042969 L 70.957031 29.597656 L 71.058594 28.058594 Z M 71.265625 27.542969 "/>
<path style=" stroke:none;fill-rule:nonzero;fill:rgb(0.392157%,92.156863%,98.431373%);fill-opacity:1;" d="M 157.191406 31.035156 L 157.296875 31.035156 L 157.398438 48.171875 L 163.859375 48.171875 L 163.859375 49.09375 L 163.753906 49.199219 L 156.269531 49.199219 L 156.167969 33.804688 L 155.960938 33.703125 L 156.167969 33.085938 L 156.988281 31.445312 Z M 157.191406 31.035156 "/>
<path style=" stroke:none;fill-rule:nonzero;fill:rgb(89.411765%,1.176471%,91.37255%);fill-opacity:1;" d="M 112.484375 11.742188 L 119.148438 11.742188 L 119.253906 12.152344 L 119.253906 29.800781 L 119.148438 32.058594 L 118.742188 32.882812 L 118.433594 32.777344 L 118.328125 12.765625 L 112.382812 12.871094 L 111.5625 12.765625 L 111.871094 12.355469 L 112.179688 11.84375 Z M 112.484375 11.742188 "/>
<path style=" stroke:none;fill-rule:nonzero;fill:rgb(89.411765%,1.176471%,91.37255%);fill-opacity:1;" d="M 8.921875 25.902344 L 16.609375 25.902344 L 17.226562 26.929688 L 18.664062 30.210938 L 19.890625 32.882812 L 21.125 35.652344 L 21.429688 36.472656 L 21.429688 37.703125 L 21.226562 38.21875 L 20.917969 38.113281 L 19.175781 34.316406 L 17.636719 30.929688 L 15.996094 27.441406 L 15.789062 26.929688 L 11.175781 27.03125 L 8.40625 27.03125 L 8.714844 26.929688 L 8.511719 26.003906 Z M 8.921875 25.902344 "/>
<path style=" stroke:none;fill-rule:nonzero;fill:rgb(0.392157%,92.156863%,98.431373%);fill-opacity:1;" d="M 128.585938 31.238281 L 131.046875 31.238281 L 131.96875 31.546875 L 132.789062 32.164062 L 133.507812 33.292969 L 133.914062 34.523438 L 133.8125 34.625 L 125.917969 34.625 L 125.816406 34.523438 L 125.816406 33.90625 L 126.636719 32.46875 L 127.046875 31.957031 L 128.277344 31.339844 Z M 128.585938 31.238281 "/>
<path style=" stroke:none;fill-rule:nonzero;fill:rgb(0.784314%,92.156863%,98.431373%);fill-opacity:1;" d="M 128.378906 38.628906 L 136.480469 38.628906 L 140.375 38.730469 L 140.375 43.144531 L 139.863281 42.9375 L 139.65625 41.808594 L 139.453125 41.398438 L 137.300781 40.269531 L 136.375 39.859375 L 126.738281 39.859375 L 125.710938 39.652344 L 125.507812 39.242188 L 125.507812 38.832031 L 125.710938 38.730469 Z M 128.378906 38.628906 "/>
<path style=" stroke:none;fill-rule:nonzero;fill:rgb(89.411765%,1.568628%,91.37255%);fill-opacity:1;" d="M 27.480469 25.902344 L 31.789062 25.902344 L 32.195312 26.3125 L 33.222656 28.671875 L 36.09375 35.136719 L 36.8125 36.984375 L 36.503906 38.011719 L 36.402344 38.21875 L 36.09375 38.113281 L 35.171875 35.960938 L 33.941406 33.394531 L 32.09375 29.1875 L 31.273438 27.441406 L 30.863281 27.03125 L 26.660156 26.929688 L 26.453125 26.722656 L 26.660156 26.722656 L 26.867188 26.210938 L 26.96875 26.003906 Z M 27.480469 25.902344 "/>
<path style=" stroke:none;fill-rule:nonzero;fill:rgb(0.392157%,92.156863%,98.431373%);fill-opacity:1;" d="M 28.507812 37.394531 L 28.8125 37.703125 L 30.148438 40.476562 L 31.375 43.246094 L 33.222656 47.351562 L 33.53125 47.964844 L 34.25 48.070312 L 38.351562 48.171875 L 37.9375 49.09375 L 37.734375 49.300781 L 36.09375 49.300781 L 32.8125 49.199219 L 32.402344 48.683594 L 31.171875 45.8125 L 29.941406 43.039062 L 28.199219 39.039062 L 27.992188 39.039062 L 28.199219 38.21875 Z M 28.507812 37.394531 "/>
<path style=" stroke:none;fill-rule:nonzero;fill:rgb(89.411765%,1.176471%,91.37255%);fill-opacity:1;" d="M 129.710938 25.285156 L 131.660156 25.285156 L 134.222656 25.800781 L 135.863281 26.414062 L 137.195312 27.132812 L 138.324219 28.058594 L 139.144531 28.878906 L 139.65625 29.699219 L 139.863281 30.417969 L 139.761719 31.136719 L 139.453125 31.339844 L 138.632812 30.210938 L 137.09375 28.671875 L 135.761719 27.851562 L 134.121094 27.132812 L 132.171875 26.621094 L 130.632812 26.414062 L 129.097656 26.414062 L 126.636719 26.828125 L 124.484375 27.542969 L 123.25 28.160156 L 123.046875 28.058594 L 124.378906 27.03125 L 125.816406 26.210938 L 127.457031 25.699219 L 128.890625 25.390625 Z M 129.710938 25.285156 "/>
<path style=" stroke:none;fill-rule:nonzero;fill:rgb(0%,0%,24.313726%);fill-opacity:1;" d="M 73.519531 57.101562 L 74.136719 57.203125 L 74.339844 57.304688 L 75.160156 57.101562 L 76.1875 57.101562 L 76.800781 57.40625 L 77.3125 58.023438 L 77.621094 58.84375 L 77.621094 59.5625 L 77.3125 60.589844 L 76.699219 61.308594 L 76.289062 61.511719 L 74.851562 61.511719 L 74.339844 61.308594 L 74.339844 62.949219 L 74.238281 63.050781 L 73.519531 63.050781 L 73.417969 62.949219 L 73.417969 57.203125 Z M 73.519531 57.101562 "/>
<path style=" stroke:none;fill-rule:nonzero;fill:rgb(89.411765%,1.176471%,91.37255%);fill-opacity:1;" d="M 85.722656 25.285156 L 87.054688 25.285156 L 89.414062 25.800781 L 91.054688 26.414062 L 92.492188 27.238281 L 93.515625 28.160156 L 94.132812 28.878906 L 95.054688 30.519531 L 95.257812 31.035156 L 95.15625 32.058594 L 94.644531 33.085938 L 94.539062 33.085938 L 94.234375 31.648438 L 93.3125 30.007812 L 92.183594 28.777344 L 91.464844 28.160156 L 89.925781 27.339844 L 88.492188 26.828125 L 86.644531 26.519531 L 84.59375 26.519531 L 82.339844 27.03125 L 81.3125 27.542969 L 81.109375 27.441406 L 82.441406 26.414062 L 83.671875 25.800781 L 85.109375 25.390625 Z M 85.722656 25.285156 "/>
<path style=" stroke:none;fill-rule:nonzero;fill:rgb(0.392157%,0%,3.529412%);fill-opacity:1;" d="M 109.203125 57.101562 L 110.332031 57.101562 L 110.945312 57.40625 L 111.359375 57.101562 L 111.871094 57.101562 L 111.972656 57.304688 L 111.972656 61.511719 L 111.359375 61.511719 L 111.152344 61.101562 L 110.332031 61.511719 L 109.101562 61.511719 L 108.382812 61.101562 L 107.871094 60.28125 L 107.769531 59.871094 L 107.769531 58.640625 L 108.179688 57.816406 L 108.898438 57.203125 Z M 109.203125 57.101562 "/>
<path style=" stroke:none;fill-rule:nonzero;fill:rgb(0%,0%,23.137255%);fill-opacity:1;" d="M 91.773438 55.558594 L 93.414062 55.558594 L 94.132812 55.765625 L 94.644531 56.277344 L 94.953125 56.996094 L 94.953125 57.816406 L 94.644531 58.640625 L 94.132812 59.050781 L 93.515625 59.253906 L 91.976562 59.355469 L 91.875 61.308594 L 91.671875 61.511719 L 90.953125 61.511719 L 90.953125 55.664062 Z M 91.773438 55.558594 "/>
<path style=" stroke:none;fill-rule:nonzero;fill:rgb(0.392157%,92.156863%,98.431373%);fill-opacity:1;" d="M 57.933594 32.675781 L 59.371094 32.675781 L 60.601562 32.882812 L 61.726562 33.496094 L 62.753906 34.421875 L 63.265625 35.242188 L 63.574219 36.265625 L 63.675781 36.984375 L 63.675781 38.21875 L 63.367188 39.550781 L 62.753906 40.679688 L 62.242188 41.191406 L 62.035156 41.089844 L 62.445312 40.476562 L 62.546875 39.347656 L 62.546875 37.5 L 62.242188 36.265625 L 61.625 35.34375 L 60.804688 34.625 L 59.472656 34.007812 L 58.242188 33.804688 L 57.011719 33.90625 L 55.472656 34.316406 L 54.757812 34.832031 L 54.960938 34.316406 L 55.679688 33.597656 L 56.804688 32.984375 L 57.320312 32.777344 Z M 57.933594 32.675781 "/>
<path style=" stroke:none;fill-rule:nonzero;fill:rgb(0.392157%,92.156863%,98.431373%);fill-opacity:1;" d="M 105.617188 32.675781 L 106.949219 32.675781 L 108.179688 32.882812 L 109.410156 33.496094 L 110.332031 34.316406 L 110.945312 35.34375 L 111.253906 36.371094 L 111.253906 38.730469 L 110.84375 39.960938 L 110.230469 40.886719 L 109.921875 41.191406 L 109.71875 41.089844 L 110.125 40.476562 L 110.230469 39.242188 L 110.230469 37.5 L 109.921875 36.265625 L 109.304688 35.34375 L 108.484375 34.625 L 107.460938 34.113281 L 106.128906 33.804688 L 105.308594 33.804688 L 103.769531 34.113281 L 102.847656 34.523438 L 102.4375 34.832031 L 102.640625 34.316406 L 103.359375 33.597656 L 104.179688 33.085938 L 105 32.777344 Z M 105.617188 32.675781 "/>
<path style=" stroke:none;fill-rule:nonzero;fill:rgb(0.392157%,92.156863%,98.431373%);fill-opacity:1;" d="M 111.050781 13.175781 L 111.152344 13.175781 L 111.152344 28.777344 L 110.640625 28.570312 L 110.332031 28.261719 L 110.230469 27.238281 L 110.230469 14.820312 L 110.332031 13.792969 Z M 111.050781 13.175781 "/>
<path style=" stroke:none;fill-rule:nonzero;fill:rgb(0.392157%,92.156863%,98.431373%);fill-opacity:1;" d="M 157.089844 13.382812 L 157.296875 13.382812 L 157.296875 26.828125 L 156.371094 26.722656 L 156.167969 26.109375 L 156.167969 25.492188 L 156.269531 25.390625 L 156.269531 14 L 156.679688 13.589844 Z M 157.089844 13.382812 "/>
<path style=" stroke:none;fill-rule:nonzero;fill:rgb(0%,0%,25.098041%);fill-opacity:1;" d="M 182.007812 26.828125 L 190.003906 27.03125 L 190.109375 27.238281 L 188.671875 29.800781 L 187.132812 32.675781 L 185.082031 36.679688 L 183.441406 39.859375 L 182.417969 41.808594 L 181.492188 43.554688 L 180.367188 45.503906 L 178.210938 49.8125 L 177.289062 51.457031 L 176.164062 53.816406 L 174.929688 56.277344 L 174.109375 57.714844 L 174.007812 57.511719 L 174.417969 56.382812 L 175.136719 54.738281 L 176.46875 52.277344 L 178.210938 48.890625 L 179.03125 47.351562 L 179.75 45.914062 L 180.570312 44.476562 L 182.109375 41.398438 L 183.441406 38.9375 L 184.46875 36.984375 L 185.289062 35.34375 L 187.132812 31.753906 L 188.46875 29.390625 L 188.875 28.367188 L 188.875 27.339844 L 188.980469 27.132812 L 184.878906 27.238281 L 183.339844 27.238281 L 181.699219 27.132812 Z M 182.007812 26.828125 "/>
<path style=" stroke:none;fill-rule:nonzero;fill:rgb(89.411765%,1.960784%,91.37255%);fill-opacity:1;" d="M 56.601562 25.285156 L 58.242188 25.285156 L 59.78125 25.59375 L 61.421875 26.109375 L 62.960938 26.929688 L 63.574219 27.238281 L 63.472656 28.058594 L 62.753906 28.367188 L 61.832031 27.75 L 60.085938 26.929688 L 58.242188 26.519531 L 57.421875 26.414062 L 55.984375 26.414062 L 53.730469 26.828125 L 51.679688 27.542969 L 50.65625 28.160156 L 50.449219 28.058594 L 51.679688 27.03125 L 52.808594 26.3125 L 54.140625 25.800781 L 55.882812 25.390625 Z M 56.601562 25.285156 "/>
<path style=" stroke:none;fill-rule:nonzero;fill:rgb(0.392157%,0%,3.921569%);fill-opacity:1;" d="M 139.042969 57.101562 L 140.171875 57.101562 L 140.992188 57.613281 L 141.503906 58.433594 L 141.605469 59.460938 L 141.195312 59.769531 L 140.171875 59.871094 L 139.042969 59.871094 L 138.429688 59.769531 L 138.632812 60.28125 L 138.941406 60.589844 L 139.25 60.691406 L 140.171875 60.691406 L 140.992188 60.484375 L 141.503906 60.589844 L 141.195312 61.101562 L 140.476562 61.511719 L 139.964844 61.613281 L 139.25 61.613281 L 138.53125 61.308594 L 138.015625 60.792969 L 137.609375 60.179688 L 137.503906 59.871094 L 137.503906 58.84375 L 138.015625 57.816406 L 138.734375 57.203125 Z M 139.042969 57.101562 "/>
<path style=" stroke:none;fill-rule:nonzero;fill:rgb(89.411765%,1.176471%,91.37255%);fill-opacity:1;" d="M 54.550781 35.035156 L 54.652344 35.34375 L 54.652344 37.394531 L 55.0625 38.730469 L 55.679688 39.859375 L 56.601562 40.679688 L 57.625 41.191406 L 58.753906 41.5 L 59.984375 41.605469 L 60.804688 41.296875 L 62.035156 41.191406 L 61.421875 41.910156 L 60.90625 42.21875 L 59.882812 42.628906 L 59.371094 42.734375 L 58.445312 42.734375 L 57.21875 42.425781 L 55.78125 41.707031 L 55.0625 41.089844 L 54.34375 40.0625 L 53.832031 38.832031 L 53.628906 37.808594 L 53.628906 36.984375 L 54.140625 35.753906 Z M 54.550781 35.035156 "/>
<path style=" stroke:none;fill-rule:nonzero;fill:rgb(89.411765%,1.176471%,91.37255%);fill-opacity:1;" d="M 102.128906 35.242188 L 102.230469 35.242188 L 102.335938 37.5 L 102.847656 39.039062 L 103.460938 39.960938 L 104.382812 40.78125 L 105.617188 41.296875 L 106.949219 41.605469 L 107.664062 41.605469 L 108.484375 41.296875 L 109.511719 41.296875 L 109.101562 41.910156 L 108.589844 42.21875 L 107.5625 42.628906 L 107.050781 42.734375 L 106.230469 42.734375 L 105.203125 42.527344 L 103.976562 42.015625 L 102.847656 41.191406 L 102.027344 40.0625 L 101.515625 38.832031 L 101.308594 37.910156 L 101.308594 36.984375 L 101.820312 35.652344 Z M 102.128906 35.242188 "/>
<path style=" stroke:none;fill-rule:nonzero;fill:rgb(89.411765%,1.176471%,91.37255%);fill-opacity:1;" d="M 104.488281 25.285156 L 105.820312 25.285156 L 107.871094 25.699219 L 109.304688 26.210938 L 110.125 26.722656 L 110.332031 27.238281 L 110.332031 28.160156 L 109.304688 27.75 L 107.664062 26.929688 L 106.023438 26.519531 L 105.101562 26.414062 L 103.769531 26.414062 L 101.820312 26.722656 L 100.488281 27.132812 L 98.746094 27.851562 L 98.335938 28.160156 L 98.128906 28.058594 L 99.359375 27.03125 L 100.695312 26.210938 L 102.230469 25.699219 L 103.460938 25.390625 Z M 104.488281 25.285156 "/>
<path style=" stroke:none;fill-rule:nonzero;fill:rgb(89.411765%,1.568628%,91.37255%);fill-opacity:1;" d="M 141.710938 25.902344 L 148.476562 25.902344 L 148.679688 26.003906 L 148.785156 28.980469 L 147.964844 29.90625 L 147.757812 29.800781 L 147.859375 29.390625 L 147.757812 29.289062 L 147.757812 27.03125 L 141.09375 27.03125 L 141.296875 26.722656 L 141.296875 26.109375 Z M 141.710938 25.902344 "/>
<path style=" stroke:none;fill-rule:nonzero;fill:rgb(89.411765%,1.176471%,91.37255%);fill-opacity:1;" d="M 148.679688 34.625 L 148.785156 34.625 L 148.679688 47.042969 L 147.757812 47.351562 L 147.757812 37.808594 L 147.859375 36.265625 L 148.273438 35.136719 Z M 148.679688 34.625 "/>
<path style=" stroke:none;fill-rule:nonzero;fill:rgb(0%,0%,24.313726%);fill-opacity:1;" d="M 128.070312 57.101562 L 128.585938 57.203125 L 128.789062 57.304688 L 128.789062 57.511719 L 129.8125 57.101562 L 130.839844 57.101562 L 131.351562 57.40625 L 131.761719 58.332031 L 131.867188 58.84375 L 131.867188 60.589844 L 131.761719 61.410156 L 131.558594 61.511719 L 130.839844 61.511719 L 130.632812 58.226562 L 130.53125 58.023438 L 129.507812 58.023438 L 129.097656 58.433594 L 128.992188 61.410156 L 128.890625 61.511719 L 127.96875 61.511719 L 127.96875 57.203125 Z M 128.070312 57.101562 "/>
<path style=" stroke:none;fill-rule:nonzero;fill:rgb(89.411765%,1.176471%,91.37255%);fill-opacity:1;" d="M 73.210938 25.902344 L 77.621094 25.902344 L 79.980469 26.003906 L 80.082031 26.109375 L 80.082031 27.851562 L 80.289062 28.367188 L 79.570312 29.082031 L 79.160156 29.1875 L 79.160156 27.03125 L 72.085938 27.03125 L 72.390625 26.828125 L 72.597656 26.722656 L 72.804688 26.003906 Z M 73.210938 25.902344 "/>
<path style=" stroke:none;fill-rule:nonzero;fill:rgb(89.411765%,1.176471%,91.37255%);fill-opacity:1;" d="M 125.710938 39.652344 L 126.53125 39.652344 L 127.351562 40.371094 L 128.070312 40.988281 L 129.300781 41.605469 L 130.632812 41.910156 L 131.453125 41.910156 L 132.582031 41.707031 L 133.914062 41.5 L 134.328125 41.398438 L 133.8125 42.015625 L 132.992188 42.527344 L 130.839844 43.039062 L 129.507812 43.039062 L 128.171875 42.628906 L 127.046875 41.910156 L 126.226562 41.089844 L 125.710938 40.167969 Z M 125.710938 39.652344 "/>
<path style=" stroke:none;fill-rule:nonzero;fill:rgb(89.411765%,1.176471%,91.37255%);fill-opacity:1;" d="M 79.773438 34.421875 L 79.980469 34.726562 L 80.082031 35.855469 L 79.980469 47.144531 L 79.160156 47.351562 L 79.160156 38.011719 L 79.261719 35.136719 L 79.570312 34.625 L 79.773438 34.625 Z M 79.773438 34.421875 "/>
<path style=" stroke:none;fill-rule:nonzero;fill:rgb(0%,0%,23.921569%);fill-opacity:1;" d="M 118.125 57.101562 L 118.84375 57.203125 L 119.046875 57.40625 L 119.5625 57.304688 L 119.867188 57.101562 L 120.894531 57.101562 L 121.609375 57.714844 L 121.917969 58.535156 L 121.917969 60.792969 L 121.816406 61.410156 L 120.996094 61.511719 L 120.894531 61.308594 L 120.789062 58.332031 L 120.585938 58.023438 L 119.5625 58.023438 L 119.253906 58.226562 L 119.148438 58.640625 L 119.046875 61.410156 L 118.945312 61.511719 L 118.125 61.511719 Z M 118.125 57.101562 "/>
<path style=" stroke:none;fill-rule:nonzero;fill:rgb(89.411765%,1.176471%,91.37255%);fill-opacity:1;" d="M 182.726562 25.902344 L 190.515625 25.902344 L 190.824219 26.003906 L 190.621094 26.621094 L 190.210938 27.238281 L 190.003906 27.132812 L 182.109375 26.929688 L 182.109375 26.621094 L 182.519531 26.003906 Z M 182.726562 25.902344 "/>
<path style=" stroke:none;fill-rule:nonzero;fill:rgb(89.411765%,1.176471%,91.37255%);fill-opacity:1;" d="M 42.347656 25.902344 L 50.449219 25.902344 L 50.757812 26.109375 L 50.039062 27.238281 L 49.9375 27.03125 L 41.9375 26.929688 L 41.734375 26.722656 L 42.039062 26.414062 Z M 42.347656 25.902344 "/>
<path style=" stroke:none;fill-rule:nonzero;fill:rgb(0%,0%,24.705882%);fill-opacity:1;" d="M 47.679688 55.558594 L 52.089844 55.664062 L 51.988281 56.175781 L 51.882812 56.277344 L 50.550781 56.382812 L 50.449219 60.589844 L 50.347656 61.308594 L 50.039062 61.511719 L 49.320312 61.511719 L 49.21875 56.484375 L 47.78125 56.277344 L 47.578125 56.175781 L 47.578125 55.664062 Z M 47.679688 55.558594 "/>
<path style=" stroke:none;fill-rule:nonzero;fill:rgb(89.411765%,1.176471%,91.37255%);fill-opacity:1;" d="M 64.496094 25.902344 L 70.957031 25.902344 L 71.675781 26.109375 L 71.570312 27.132812 L 71.265625 27.75 L 70.957031 27.75 L 70.75 27.238281 L 70.546875 27.132812 L 63.78125 27.03125 L 64.1875 26.621094 L 64.394531 26.003906 Z M 64.496094 25.902344 "/>
<path style=" stroke:none;fill-rule:nonzero;fill:rgb(89.411765%,1.176471%,91.37255%);fill-opacity:1;" d="M 164.574219 34.625 L 164.984375 34.625 L 165.292969 35.035156 L 165.292969 47.144531 L 164.679688 47.351562 L 164.472656 47.554688 L 164.574219 47.144531 Z M 164.574219 34.625 "/>
<path style=" stroke:none;fill-rule:nonzero;fill:rgb(0%,0%,23.529412%);fill-opacity:1;" d="M 63.78125 27.03125 L 70.546875 27.03125 L 70.957031 27.339844 L 70.957031 27.75 L 71.164062 27.75 L 71.058594 29.597656 L 70.957031 47.042969 L 70.855469 47.144531 L 70.75 48.070312 L 70.648438 48.070312 L 70.546875 31.855469 L 70.546875 27.238281 L 64.703125 27.238281 L 63.675781 27.339844 L 63.574219 28.570312 L 63.367188 28.878906 L 62.855469 28.46875 L 62.960938 28.160156 L 63.472656 28.058594 L 63.472656 27.441406 Z M 63.78125 27.03125 "/>
<path style=" stroke:none;fill-rule:nonzero;fill:rgb(0.392157%,92.156863%,98.431373%);fill-opacity:1;" d="M 151.039062 32.777344 L 153.296875 32.777344 L 154.527344 33.085938 L 155.960938 33.804688 L 155.449219 34.625 L 155.039062 34.726562 L 152.78125 34.007812 L 152.269531 33.90625 L 150.425781 33.90625 L 149.195312 34.421875 L 148.578125 34.726562 L 148.785156 34.214844 L 149.5 33.496094 L 150.734375 32.882812 Z M 151.039062 32.777344 "/>
<path style=" stroke:none;fill-rule:nonzero;fill:rgb(89.019608%,0.784314%,90.980393%);fill-opacity:1;" d="M 126.125 33.292969 L 126.636719 33.394531 L 126.945312 33.496094 L 131.453125 33.597656 L 132.378906 33.804688 L 132.789062 34.316406 L 132.789062 34.625 L 125.917969 34.625 L 125.816406 34.523438 L 125.816406 33.90625 Z M 126.125 33.292969 "/>
<path style=" stroke:none;fill-rule:nonzero;fill:rgb(98.431373%,98.823529%,99.215686%);fill-opacity:1;" d="M 128.070312 32.265625 L 130.429688 32.265625 L 131.453125 32.777344 L 132.171875 33.496094 L 132.171875 33.703125 L 126.945312 33.597656 L 126.226562 33.292969 L 126.328125 32.984375 L 127.148438 32.46875 Z M 128.070312 32.265625 "/>
<path style=" stroke:none;fill-rule:nonzero;fill:rgb(89.411765%,1.176471%,91.37255%);fill-opacity:1;" d="M 189.695312 27.851562 L 189.800781 28.058594 L 188.570312 30.417969 L 187.542969 32.367188 L 186.007812 35.34375 L 184.46875 38.21875 L 183.441406 40.269531 L 182.210938 42.527344 L 181.1875 44.578125 L 180.160156 46.53125 L 178.929688 48.890625 L 177.90625 50.839844 L 176.265625 54.019531 L 175.136719 56.074219 L 175.035156 55.867188 L 177.90625 50.121094 L 179.136719 47.761719 L 180.160156 45.8125 L 180.777344 44.578125 L 182.109375 42.21875 L 183.132812 40.269531 L 183.953125 38.628906 L 185.390625 35.855469 L 187.441406 31.855469 L 188.671875 29.597656 Z M 189.695312 27.851562 "/>
<path style=" stroke:none;fill-rule:nonzero;fill:rgb(0%,0%,21.960784%);fill-opacity:1;" d="M 147.554688 57.101562 L 148.167969 57.101562 L 148.578125 57.511719 L 149.398438 57.101562 L 150.21875 57.101562 L 150.425781 57.511719 L 150.117188 57.816406 L 149.195312 58.023438 L 148.785156 58.433594 L 148.679688 58.742188 L 148.578125 61.410156 L 148.375 61.511719 L 147.554688 61.511719 Z M 147.554688 57.101562 "/>
<path style=" stroke:none;fill-rule:nonzero;fill:rgb(97.254902%,94.509804%,98.823529%);fill-opacity:1;" d="M 109.613281 57.816406 L 110.332031 57.921875 L 110.945312 58.640625 L 111.050781 58.945312 L 111.050781 59.769531 L 110.742188 60.382812 L 110.125 60.792969 L 109.410156 60.792969 L 108.898438 60.28125 L 108.589844 59.664062 L 108.589844 58.84375 L 108.898438 58.332031 L 109.304688 57.921875 Z M 109.613281 57.816406 "/>
<path style=" stroke:none;fill-rule:nonzero;fill:rgb(89.411765%,1.176471%,91.37255%);fill-opacity:1;" d="M 135.96875 39.757812 L 136.582031 39.859375 L 139.144531 41.089844 L 139.65625 41.605469 L 139.863281 42.117188 L 139.863281 42.835938 L 138.734375 42.425781 L 135.96875 40.988281 L 135.660156 40.78125 L 135.148438 40.679688 L 135.761719 39.960938 Z M 135.96875 39.757812 "/>
<path style=" stroke:none;fill-rule:nonzero;fill:rgb(0%,0%,24.313726%);fill-opacity:1;" d="M 140.171875 57.203125 L 140.785156 57.40625 L 141.402344 58.226562 L 141.605469 58.84375 L 141.605469 59.460938 L 141.195312 59.769531 L 140.171875 59.871094 L 139.042969 59.871094 L 138.429688 59.769531 L 138.324219 60.179688 L 138.121094 59.871094 L 138.121094 58.84375 L 138.632812 58.332031 L 139.351562 57.816406 L 139.964844 57.816406 L 140.476562 58.332031 L 140.683594 58.945312 L 140.375 59.050781 L 140.582031 59.253906 L 140.582031 59.5625 L 141.09375 59.5625 L 140.785156 58.433594 L 140.785156 58.125 L 140.375 57.921875 Z M 140.171875 57.203125 "/>
<path style=" stroke:none;fill-rule:nonzero;fill:rgb(98.431373%,94.901961%,99.215686%);fill-opacity:1;" d="M 75.058594 57.921875 L 75.980469 57.921875 L 76.492188 58.332031 L 76.699219 58.945312 L 76.699219 59.769531 L 76.390625 60.382812 L 76.085938 60.691406 L 75.160156 60.792969 L 74.546875 60.28125 L 74.339844 59.871094 L 74.339844 58.640625 L 74.851562 58.023438 Z M 75.058594 57.921875 "/>
<path style=" stroke:none;fill-rule:nonzero;fill:rgb(0%,0%,24.313726%);fill-opacity:1;" d="M 57.832031 57.101562 L 58.550781 57.203125 L 58.859375 57.511719 L 59.265625 57.203125 L 60.601562 57.203125 L 60.5 57.714844 L 59.164062 58.125 L 58.960938 58.535156 L 58.859375 61.101562 L 58.753906 61.511719 L 57.832031 61.511719 Z M 57.832031 57.101562 "/>
<path style=" stroke:none;fill-rule:nonzero;fill:rgb(0%,0%,24.705882%);fill-opacity:1;" d="M 100.898438 55.664062 L 101.71875 55.664062 L 101.820312 56.6875 L 101.71875 61.410156 L 101.515625 61.511719 L 100.898438 61.511719 L 100.796875 59.5625 L 100.796875 57.511719 Z M 100.898438 55.664062 "/>
<path style=" stroke:none;fill-rule:nonzero;fill:rgb(0.392157%,0%,24.705882%);fill-opacity:1;" d="M 164.371094 32.777344 L 164.679688 33.1875 L 164.882812 34.316406 L 164.984375 34.832031 L 164.574219 34.625 L 164.679688 41.707031 L 164.679688 47.144531 L 164.574219 47.554688 L 164.574219 48.070312 L 164.371094 47.964844 L 164.265625 46.324219 L 164.265625 34.113281 Z M 164.371094 32.777344 "/>
<path style=" stroke:none;fill-rule:nonzero;fill:rgb(0%,0%,25.098041%);fill-opacity:1;" d="M 66.957031 56.996094 L 67.367188 56.996094 L 67.367188 61.410156 L 67.164062 61.511719 L 66.34375 61.511719 L 66.34375 57.101562 Z M 66.957031 56.996094 "/>
<path style=" stroke:none;fill-rule:nonzero;fill:rgb(97.647059%,95.294118%,99.215686%);fill-opacity:1;" d="M 92.386719 56.277344 L 93.515625 56.382812 L 93.925781 56.792969 L 93.925781 57.921875 L 93.414062 58.433594 L 93.105469 58.535156 L 91.976562 58.535156 L 91.875 58.433594 L 91.875 56.382812 Z M 92.386719 56.277344 "/>
<path style=" stroke:none;fill-rule:nonzero;fill:rgb(89.019608%,0.784314%,90.980393%);fill-opacity:1;" d="M 154.320312 25.390625 L 156.0625 25.390625 L 156.269531 25.800781 L 156.167969 26.519531 L 154.21875 26.414062 L 151.554688 26.929688 L 151.039062 27.132812 L 150.734375 27.03125 L 151.757812 26.3125 L 152.578125 25.902344 Z M 154.320312 25.390625 "/>
<path style=" stroke:none;fill-rule:nonzero;fill:rgb(0%,0%,24.313726%);fill-opacity:1;" d="M 111.359375 57.101562 L 111.871094 57.101562 L 111.972656 57.304688 L 111.972656 61.511719 L 111.359375 61.511719 L 111.152344 61.101562 L 110.539062 61.410156 L 110.332031 61.308594 L 110.742188 61 L 111.050781 60.898438 L 111.152344 60.589844 L 111.152344 57.921875 L 110.945312 57.511719 Z M 111.359375 57.101562 "/>
<path style=" stroke:none;fill-rule:nonzero;fill:rgb(1.176471%,0.392157%,26.274511%);fill-opacity:1;" d="M 118.328125 13.589844 L 118.433594 13.589844 L 118.535156 32.777344 L 118.742188 32.984375 L 118.636719 33.292969 L 118.636719 34.523438 L 118.328125 35.445312 L 118.226562 35.445312 L 118.226562 33.394531 L 118.125 32.265625 L 118.226562 28.058594 Z M 118.328125 13.589844 "/>
<path style=" stroke:none;fill-rule:nonzero;fill:rgb(0.392157%,92.156863%,98.431373%);fill-opacity:1;" d="M 25.632812 27.75 L 25.738281 27.953125 L 24.097656 31.648438 L 22.558594 35.035156 L 21.53125 37.394531 L 21.429688 37.394531 L 21.429688 36.574219 L 21.738281 36.371094 L 22.558594 34.214844 L 23.378906 32.164062 L 24.199219 30.210938 L 25.019531 28.46875 Z M 25.632812 27.75 "/>
<path style=" stroke:none;fill-rule:nonzero;fill:rgb(1.176471%,92.156863%,98.431373%);fill-opacity:1;" d="M 140.171875 27.851562 L 140.375 27.851562 L 140.375 32.574219 L 140.070312 32.574219 L 139.554688 31.445312 L 139.761719 30.929688 L 139.65625 30.007812 L 139.453125 29.289062 L 139.65625 28.367188 L 139.863281 27.953125 Z M 140.171875 27.851562 "/>
<path style=" stroke:none;fill-rule:nonzero;fill:rgb(0%,0%,25.098041%);fill-opacity:1;" d="M 79.570312 34.214844 L 79.773438 34.625 L 79.46875 34.933594 L 79.367188 35.136719 L 79.261719 38.011719 L 79.261719 47.144531 L 79.058594 47.453125 L 78.953125 47.246094 L 78.953125 35.855469 L 79.160156 34.832031 Z M 79.570312 34.214844 "/>
<path style=" stroke:none;fill-rule:nonzero;fill:rgb(0%,0%,25.098041%);fill-opacity:1;" d="M 41.734375 26.828125 L 48.5 26.929688 L 49.9375 27.03125 L 49.730469 27.542969 L 49.21875 28.367188 L 49.117188 27.953125 L 48.808594 27.339844 L 48.398438 27.238281 L 42.453125 27.238281 L 41.527344 27.132812 Z M 41.734375 26.828125 "/>
<path style=" stroke:none;fill-rule:nonzero;fill:rgb(0.392157%,92.156863%,98.431373%);fill-opacity:1;" d="M 40.914062 27.75 L 40.914062 28.058594 L 39.273438 31.648438 L 37.734375 35.035156 L 36.914062 36.882812 L 36.710938 36.984375 L 36.8125 36.472656 L 37.9375 33.804688 L 39.273438 30.625 L 40.09375 28.980469 L 40.707031 27.953125 Z M 40.914062 27.75 "/>
<path style=" stroke:none;fill-rule:nonzero;fill:rgb(0.392157%,92.156863%,98.431373%);fill-opacity:1;" d="M 181.085938 27.75 L 181.1875 27.953125 L 179.957031 30.417969 L 178.625 33.292969 L 177.1875 36.371094 L 176.878906 36.984375 L 176.777344 36.679688 L 176.878906 36.0625 L 177.1875 35.753906 L 178.417969 32.984375 L 179.03125 31.445312 L 180.265625 28.878906 L 180.980469 27.851562 Z M 181.085938 27.75 "/>
<path style=" stroke:none;fill-rule:nonzero;fill:rgb(0%,0%,25.098041%);fill-opacity:1;" d="M 27.890625 38.628906 L 27.992188 38.628906 L 27.890625 39.449219 L 27.070312 41.089844 L 25.226562 45.195312 L 24.40625 47.144531 L 24.199219 47.246094 L 24.40625 46.324219 L 24.609375 46.015625 L 24.8125 45.09375 L 25.941406 42.628906 L 26.351562 41.707031 L 27.171875 40.0625 L 27.6875 39.242188 Z M 27.890625 38.628906 "/>
<path style=" stroke:none;fill-rule:nonzero;fill:rgb(99.215686%,99.215686%,99.607843%);fill-opacity:1;" d="M 136.375 39.757812 L 138.835938 39.757812 L 139.554688 40.0625 L 139.554688 41.398438 L 137.914062 40.578125 L 136.375 39.859375 Z M 136.375 39.757812 "/>
<path style=" stroke:none;fill-rule:nonzero;fill:rgb(0.392157%,0%,1.960784%);fill-opacity:1;" d="M 47.679688 55.558594 L 51.578125 55.664062 L 51.988281 55.867188 L 51.78125 56.074219 L 49.320312 56.277344 L 47.78125 56.277344 L 47.578125 56.175781 L 47.578125 55.664062 Z M 47.679688 55.558594 "/>
<path style=" stroke:none;fill-rule:nonzero;fill:rgb(0.392157%,0%,0.784314%);fill-opacity:1;" d="M 57.933594 57.101562 L 58.550781 57.203125 L 58.652344 57.613281 L 58.550781 57.714844 L 58.445312 60.792969 L 58.242188 60.792969 L 58.140625 61.203125 L 58.550781 61.410156 L 57.933594 61.410156 Z M 57.933594 57.101562 "/>
<path style=" stroke:none;fill-rule:nonzero;fill:rgb(96.078432%,92.54902%,98.823529%);fill-opacity:1;" d="M 139.351562 57.816406 L 139.964844 57.816406 L 140.476562 58.332031 L 140.683594 58.945312 L 140.375 59.050781 L 138.429688 59.050781 L 138.429688 58.535156 L 139.144531 57.921875 Z M 139.351562 57.816406 "/>
<path style=" stroke:none;fill-rule:nonzero;fill:rgb(0%,0%,25.098041%);fill-opacity:1;" d="M 55.984375 26.3125 L 57.421875 26.3125 L 59.371094 26.621094 L 59.78125 26.828125 L 58.859375 26.828125 L 58.039062 26.621094 L 55.679688 26.621094 L 53.523438 27.03125 L 52.191406 27.542969 L 50.449219 28.570312 L 49.527344 29.390625 L 49.320312 29.289062 L 50.449219 28.160156 L 51.882812 27.339844 L 53.730469 26.722656 Z M 55.984375 26.3125 "/>
<path style=" stroke:none;fill-rule:nonzero;fill:rgb(88.627452%,0.784314%,90.980393%);fill-opacity:1;" d="M 118.535156 44.167969 L 118.742188 44.167969 L 119.148438 45.195312 L 119.148438 47.042969 L 118.84375 47.246094 L 118.433594 47.246094 L 118.328125 46.941406 L 118.328125 45.605469 Z M 118.535156 44.167969 "/>
<path style=" stroke:none;fill-rule:nonzero;fill:rgb(87.843138%,0.784314%,90.196079%);fill-opacity:1;" d="M 94.539062 44.886719 L 94.746094 44.886719 L 95.257812 46.117188 L 95.359375 47.042969 L 94.644531 47.351562 L 94.4375 47.660156 L 94.4375 46.222656 Z M 94.539062 44.886719 "/>
<path style=" stroke:none;fill-rule:nonzero;fill:rgb(0.392157%,0%,1.176471%);fill-opacity:1;" d="M 73.519531 57.101562 L 74.136719 57.203125 L 74.03125 57.921875 L 73.828125 58.640625 L 73.828125 60.074219 L 74.03125 61 L 73.519531 61.101562 Z M 73.519531 57.101562 "/>
<path style=" stroke:none;fill-rule:nonzero;fill:rgb(89.411765%,1.176471%,91.37255%);fill-opacity:1;" d="M 27.480469 40.0625 L 27.582031 40.371094 L 25.632812 44.785156 L 24.710938 46.734375 L 24.609375 46.425781 L 25.738281 43.863281 L 27.070312 40.886719 Z M 27.480469 40.0625 "/>
<path style=" stroke:none;fill-rule:nonzero;fill:rgb(0.392157%,0%,4.313726%);fill-opacity:1;" d="M 100.898438 55.664062 L 101.515625 55.664062 L 101.515625 55.867188 L 101.101562 56.277344 L 101.101562 61.308594 L 101.308594 61.410156 L 100.898438 61.410156 L 100.796875 59.5625 L 100.796875 57.511719 Z M 100.898438 55.664062 "/>
<path style=" stroke:none;fill-rule:nonzero;fill:rgb(0%,0%,25.098041%);fill-opacity:1;" d="M 140.582031 27.03125 L 147.757812 27.03125 L 147.859375 29.289062 L 147.964844 29.597656 L 147.964844 29.90625 L 147.757812 30.109375 L 147.554688 29.597656 L 147.554688 27.132812 L 140.582031 27.132812 Z M 140.582031 27.03125 "/>
<path style=" stroke:none;fill-rule:nonzero;fill:rgb(0.392157%,0%,7.843138%);fill-opacity:1;" d="M 140.992188 60.484375 L 141.503906 60.589844 L 141.195312 61.101562 L 140.476562 61.511719 L 139.25 61.410156 L 139.042969 61.308594 L 139.144531 61 L 140.171875 60.898438 L 140.171875 60.691406 Z M 140.992188 60.484375 "/>
<path style=" stroke:none;fill-rule:nonzero;fill:rgb(0%,0%,25.098041%);fill-opacity:1;" d="M 71.984375 27.03125 L 79.160156 27.03125 L 79.261719 27.339844 L 79.261719 28.980469 L 79.160156 29.1875 L 79.367188 29.289062 L 79.058594 29.289062 L 78.953125 28.980469 L 79.058594 27.339844 L 78.339844 27.238281 L 71.984375 27.132812 Z M 71.984375 27.03125 "/>
<path style=" stroke:none;fill-rule:nonzero;fill:rgb(0%,0%,25.098041%);fill-opacity:1;" d="M 84.59375 26.414062 L 86.644531 26.414062 L 88.492188 26.722656 L 88.492188 26.828125 L 87.464844 26.828125 L 86.441406 26.621094 L 84.695312 26.621094 L 82.953125 27.03125 L 81.929688 27.441406 L 80.800781 28.058594 L 80.59375 27.953125 L 81.621094 27.238281 L 82.75 26.828125 Z M 84.59375 26.414062 "/>
<path style=" stroke:none;fill-rule:nonzero;fill:rgb(0%,0%,25.098041%);fill-opacity:1;" d="M 63.78125 27.03125 L 69.929688 27.03125 L 69.929688 27.132812 L 64.703125 27.238281 L 63.675781 27.339844 L 63.574219 28.570312 L 63.367188 28.878906 L 62.855469 28.46875 L 62.960938 28.160156 L 63.472656 28.058594 L 63.472656 27.441406 Z M 63.78125 27.03125 "/>
<path style=" stroke:none;fill-rule:nonzero;fill:rgb(0%,0%,24.313726%);fill-opacity:1;" d="M 26.453125 26.828125 L 30.863281 26.929688 L 30.554688 27.132812 L 30.148438 27.238281 L 26.351562 27.238281 L 25.941406 27.542969 L 26.148438 27.132812 Z M 26.453125 26.828125 "/>
<path style=" stroke:none;fill-rule:nonzero;fill:rgb(0%,0%,25.098041%);fill-opacity:1;" d="M 118.226562 42.628906 L 118.433594 42.9375 L 118.636719 44.167969 L 118.433594 45.605469 L 118.433594 47.761719 L 118.328125 47.761719 L 118.125 46.734375 L 118.125 44.992188 Z M 118.226562 42.628906 "/>
<path style=" stroke:none;fill-rule:nonzero;fill:rgb(0%,0%,25.098041%);fill-opacity:1;" d="M 103.769531 26.3125 L 105.101562 26.3125 L 107.050781 26.621094 L 107.050781 26.722656 L 106.230469 26.722656 L 105.617188 26.621094 L 103.667969 26.621094 L 101.515625 26.929688 L 100.589844 27.238281 L 100.28125 27.132812 L 101.410156 26.722656 L 102.847656 26.414062 Z M 103.769531 26.3125 "/>
<path style=" stroke:none;fill-rule:nonzero;fill:rgb(0%,0%,24.705882%);fill-opacity:1;" d="M 165.191406 58.332031 L 165.90625 58.433594 L 167.652344 58.535156 L 172.0625 58.640625 L 172.0625 58.742188 L 165.085938 58.742188 Z M 165.191406 58.332031 "/>
<path style=" stroke:none;fill-rule:nonzero;fill:rgb(0%,0%,25.098041%);fill-opacity:1;" d="M 140.476562 42.117188 L 140.683594 42.320312 L 140.785156 43.554688 L 140.785156 47.761719 L 141.402344 47.964844 L 141.402344 48.070312 L 140.582031 48.070312 L 140.476562 43.65625 L 140.273438 43.554688 L 140.273438 43.246094 L 140.476562 43.246094 Z M 140.476562 42.117188 "/>
<path style=" stroke:none;fill-rule:nonzero;fill:rgb(0%,0%,25.098041%);fill-opacity:1;" d="M 125.097656 27.238281 L 125.40625 27.339844 L 123.765625 28.160156 L 122.328125 29.082031 L 121.609375 29.699219 L 121.40625 29.597656 L 122.328125 28.671875 L 123.765625 27.75 Z M 125.097656 27.238281 "/>
<path style=" stroke:none;fill-rule:nonzero;fill:rgb(0%,0%,25.098041%);fill-opacity:1;" d="M 99.976562 27.238281 L 100.28125 27.339844 L 98.746094 28.160156 L 97.515625 29.082031 L 97 29.390625 L 97.207031 28.980469 L 97.925781 28.261719 L 99.15625 27.542969 Z M 99.976562 27.238281 "/>
<path style=" stroke:none;fill-rule:nonzero;fill:rgb(0%,0%,25.098041%);fill-opacity:1;" d="M 108.589844 58.535156 L 108.691406 58.84375 L 108.691406 59.664062 L 109 60.28125 L 108.898438 60.484375 L 108.382812 59.972656 L 107.972656 60.074219 L 107.972656 59.253906 L 108.28125 58.945312 Z M 108.589844 58.535156 "/>
<path style=" stroke:none;fill-rule:nonzero;fill:rgb(0%,0%,25.098041%);fill-opacity:1;" d="M 94.335938 43.554688 L 94.4375 43.554688 L 94.539062 44.578125 L 94.644531 44.886719 L 94.539062 46.222656 L 94.539062 48.070312 L 94.335938 47.761719 L 94.234375 46.425781 Z M 94.335938 43.554688 "/>
<path style=" stroke:none;fill-rule:nonzero;fill:rgb(0%,0%,24.313726%);fill-opacity:1;" d="M 54.550781 34.726562 L 54.652344 35.035156 L 53.832031 36.679688 L 53.730469 36.984375 L 53.730469 38.320312 L 53.523438 37.910156 L 53.523438 36.574219 L 54.140625 35.34375 Z M 54.550781 34.726562 "/>
<path style=" stroke:none;fill-rule:nonzero;fill:rgb(0%,0%,25.098041%);fill-opacity:1;" d="M 152.167969 26.722656 L 152.679688 26.722656 L 152.269531 26.929688 L 151.039062 27.441406 L 150.015625 27.953125 L 149.808594 27.851562 L 150.734375 27.132812 L 151.554688 26.828125 Z M 152.167969 26.722656 "/>
<path style=" stroke:none;fill-rule:nonzero;fill:rgb(0%,0%,25.098041%);fill-opacity:1;" d="M 140.171875 60.898438 L 140.582031 61 L 140.476562 61.511719 L 139.25 61.410156 L 139.042969 61.308594 L 139.144531 61 Z M 140.171875 60.898438 "/>
<path style=" stroke:none;fill-rule:nonzero;fill:rgb(0%,0%,25.098041%);fill-opacity:1;" d="M 43.988281 37.703125 L 44.09375 37.910156 L 42.859375 40.269531 L 42.65625 40.371094 L 42.859375 39.550781 L 43.375 38.628906 Z M 43.988281 37.703125 "/>
<path style=" stroke:none;fill-rule:nonzero;fill:rgb(0%,0%,16.862746%);fill-opacity:1;" d="M 178.726562 32.984375 L 178.828125 33.1875 L 178.210938 34.726562 L 177.699219 35.550781 L 177.597656 35.242188 L 178.625 33.085938 Z M 178.726562 32.984375 "/>
<path style=" stroke:none;fill-rule:nonzero;fill:rgb(0%,0%,25.098041%);fill-opacity:1;" d="M 66.648438 56.074219 L 67.367188 56.175781 L 67.46875 56.585938 L 66.753906 56.6875 L 66.34375 56.585938 L 66.242188 56.277344 Z M 66.648438 56.074219 "/>
<path style=" stroke:none;fill-rule:nonzero;fill:rgb(0%,0%,25.098041%);fill-opacity:1;" d="M 135.148438 40.679688 L 135.863281 40.78125 L 135.554688 40.988281 L 134.839844 41.296875 L 134.429688 41.707031 L 133.609375 42.320312 L 133.402344 42.21875 L 134.941406 40.886719 Z M 135.148438 40.679688 "/>
<path style=" stroke:none;fill-rule:nonzero;fill:rgb(0%,0%,24.313726%);fill-opacity:1;" d="M 102.230469 34.726562 L 102.335938 35.035156 L 101.71875 36.0625 L 101.410156 36.984375 L 101.308594 37.910156 L 101.207031 37.910156 L 101.207031 36.574219 L 101.820312 35.34375 Z M 102.230469 34.726562 "/>
<path style=" stroke:none;fill-rule:nonzero;fill:rgb(0.392157%,0%,8.235294%);fill-opacity:1;" d="M 129.8125 57.101562 L 130.839844 57.101562 L 131.25 57.304688 L 131.148438 57.511719 L 130.839844 57.511719 L 129.507812 57.40625 L 129.507812 57.203125 Z M 129.8125 57.101562 "/>
<path style=" stroke:none;fill-rule:nonzero;fill:rgb(0.392157%,92.156863%,98.431373%);fill-opacity:1;" d="M 63.265625 28.058594 L 63.472656 28.058594 L 63.574219 28.570312 L 63.367188 28.878906 L 62.855469 28.46875 L 62.960938 28.160156 Z M 63.265625 28.058594 "/>
<path style=" stroke:none;fill-rule:nonzero;fill:rgb(90.588236%,81.568629%,98.039216%);fill-opacity:1;" d="M 95.054688 31.753906 L 95.15625 32.058594 L 94.644531 33.085938 L 94.539062 33.085938 L 94.539062 32.46875 Z M 95.054688 31.753906 "/>
<path style=" stroke:none;fill-rule:nonzero;fill:rgb(0.392157%,0%,2.745098%);fill-opacity:1;" d="M 90.953125 55.664062 L 92.386719 55.664062 L 92.386719 55.765625 L 91.566406 55.972656 L 91.054688 55.972656 Z M 90.953125 55.664062 "/>
<path style=" stroke:none;fill-rule:nonzero;fill:rgb(3.921569%,92.156863%,98.431373%);fill-opacity:1;" d="M 21.019531 37.394531 L 21.328125 37.394531 L 21.328125 38.011719 L 21.226562 38.21875 L 20.917969 38.113281 L 20.917969 37.5 Z M 21.019531 37.394531 "/>
</g>
</svg>
